<svg width="61" height="61" viewBox="0 0 61 61" fill="none" xmlns="http://www.w3.org/2000/svg">
<mask id="mask0_244_69" style="mask-type:alpha" maskUnits="userSpaceOnUse" x="0" y="0" width="61" height="61">
<rect width="60.6" height="60.6" fill="#D9D9D9"/>
</mask>
<g mask="url(#mask0_244_69)">
<path d="M50.2477 57.1623C45.2398 57.1623 40.1898 55.9929 35.0977 53.6541C30.0056 51.3152 25.3133 47.9966 21.0208 43.6982C16.7283 39.3997 13.4143 34.701 11.0786 29.6019C8.74301 24.5028 7.5752 19.4458 7.5752 14.431C7.5752 13.6363 7.83971 12.9741 8.36874 12.4443C8.89781 11.9145 9.55913 11.6497 10.3527 11.6497H19.6531C20.2423 11.6497 20.7543 11.8568 21.1891 12.2712C21.624 12.6856 21.9116 13.1949 22.0518 13.7989L23.7322 22.0434C23.8184 22.6716 23.8053 23.2245 23.6931 23.702C23.5809 24.1797 23.3532 24.5902 23.0101 24.9337L16.7704 31.2454C17.7804 33.0013 18.885 34.6553 20.0844 36.2075C21.2838 37.7597 22.6059 39.2382 24.0508 40.6429C25.5237 42.146 27.0738 43.5261 28.701 44.7833C30.3283 46.0405 32.0397 47.1608 33.8352 48.1441L39.811 42.0336C40.2179 41.5982 40.7074 41.2926 41.2798 41.117C41.8522 40.9414 42.4147 40.8958 42.9673 40.9801L50.8789 42.6657C51.4962 42.8343 52.0082 43.1615 52.415 43.6474C52.8218 44.1333 53.0252 44.6769 53.0252 45.2785V54.381C53.0252 55.1757 52.7607 55.8379 52.2316 56.3677C51.7026 56.8975 51.0413 57.1623 50.2477 57.1623Z" fill="#7B7553"/>
</g>
</svg>
