<svg width="63" height="63" viewBox="0 0 63 63" fill="none" xmlns="http://www.w3.org/2000/svg">
<g clip-path="url(#clip0_153_57)">
<path d="M26.3109 41H20.0382C20.0382 36.9078 19.9288 32.8405 20.0803 28.7898C20.1814 26.0117 22.1431 25.2215 24.6859 25.2465C29.0894 25.2881 33.9223 25.3796 38.5784 25.3796C38.5278 22.6847 38.4773 21.3955 38.4437 19C41.5421 22.2522 44.7416 25.6042 48 29.0144C45.4067 31.5429 42.1146 34.7618 38.5615 38.2302C38.4942 35.9096 38.5868 33.9384 38.5447 31.6344C34.6548 31.6344 30.5376 31.5679 26.3109 31.5679V40.9917V41Z" fill="#7B7553"/>
<rect width="44.3948" height="44.3948" rx="9" transform="matrix(0.704754 0.709452 -0.704754 0.709452 31.2876 0)" stroke="#7B7553" stroke-width="4"/>
</g>
<defs>
<clipPath id="clip0_153_57">
<rect width="63" height="63" fill="white"/>
</clipPath>
</defs>
</svg>
