<svg width="61" height="56" viewBox="0 0 61 56" fill="none" xmlns="http://www.w3.org/2000/svg">
<g clip-path="url(#clip0_113_102)">
<path d="M61.0001 25.4725C60.8842 31.7434 58.5829 37.4723 53.8371 42.152C51.9211 44.0419 49.8005 45.6331 47.4344 46.8768C46.9809 47.1131 46.8957 47.3354 47.0184 47.8357C47.881 51.3585 45.9718 54.7389 42.5931 55.7255C39.3201 56.6809 35.9142 54.8153 34.8096 51.4454C34.6868 51.0736 34.6766 50.6602 34.5436 50.2919C34.4823 50.1182 34.2572 49.8855 34.1004 49.8855C31.2707 49.8438 28.4375 49.8368 25.6043 49.809C25.185 49.8055 25.2395 50.0835 25.1986 50.351C24.7997 52.9045 23.4258 54.7041 21.046 55.5727C18.6697 56.4412 16.4468 55.9861 14.5819 54.2386C12.8363 52.5988 12.2022 50.5143 12.6761 48.1414C12.792 47.5543 12.6147 47.391 12.1442 47.2104C7.65413 45.4872 3.83907 42.7982 0.862717 38.928C-0.027122 37.7711 -0.282823 36.5238 0.368362 35.1863C0.985453 33.9217 2.04917 33.3832 3.42654 33.3693C5.39374 33.3519 6.44722 32.6779 6.99613 30.7498C7.43593 29.2003 7.65072 27.5674 7.8246 25.9554C8.1178 23.2386 8.15872 20.494 8.919 17.8433C9.99976 14.0842 11.9772 10.881 14.7217 8.16773C18.8845 4.04737 23.8758 1.53903 29.566 0.472458C34.9766 -0.541997 40.2304 0.0903008 45.2831 2.27555C50.8812 4.69704 55.2759 8.53599 58.2283 14.0008C60.0864 17.4368 60.9695 21.1402 61.0001 25.4725ZM3.30381 36.6697C3.3379 36.7809 3.34472 36.8261 3.36518 36.8573C3.4095 36.9268 3.46405 36.9894 3.51519 37.0554C6.32108 40.6859 9.98953 43.0275 14.2376 44.497C14.4626 44.5769 14.8376 44.4692 15.0456 44.3129C17.9129 42.1207 22.0825 42.76 24.0701 45.7651C24.4247 46.3001 24.7997 46.519 25.3964 46.5225C28.3898 46.5329 31.3832 46.651 34.3732 46.5468C36.5551 46.4704 38.761 46.2862 40.8918 45.8381C45.6513 44.8444 49.6027 42.2805 52.7393 38.5597C58.034 32.2819 59.4046 25.0521 56.2168 17.4785C52.2995 8.18162 44.7273 3.88408 35.0346 3.31432C30.6468 3.05723 26.501 4.24887 22.6212 6.32989C19.3618 8.08087 16.5934 10.4225 14.4558 13.5145C12.1749 16.8114 11.3976 20.5496 11.1419 24.4963C10.9987 26.6954 10.6953 28.898 10.2657 31.059C9.89407 32.942 8.95991 34.5748 7.28251 35.6344C6.07901 36.3953 4.7255 36.5898 3.30381 36.6697Z" fill="#7B7553"/>
<path d="M34.3559 36.298C30.2409 36.1347 26.8213 34.6026 24.5882 30.9304C24.087 30.1036 23.8108 29.0995 23.5961 28.1372C23.3949 27.2408 23.9984 26.5008 24.8302 26.3549C25.7303 26.1951 26.4667 26.6572 26.7054 27.557C27.5441 30.6976 29.784 32.2749 32.7195 32.8377C35.6685 33.4005 38.379 32.6849 40.6394 30.5656C41.4849 29.77 42.0611 28.8007 42.3645 27.6577C42.5691 26.8865 43.1077 26.4731 43.8237 26.4348C44.5431 26.3966 45.1465 26.7093 45.3818 27.4076C45.5113 27.7898 45.5215 28.2831 45.4124 28.6757C44.4749 32.0352 42.1736 34.0988 39.1052 35.3843C37.5914 36.0166 36.0027 36.291 34.3559 36.3049V36.298Z" fill="#7B7553"/>
<path d="M24.2065 19.497C24.2065 17.7252 25.5464 16.3668 27.2818 16.3842C28.9899 16.3981 30.3809 17.826 30.3638 19.5387C30.3468 21.2619 28.9524 22.6516 27.2443 22.6585C25.543 22.6655 24.21 21.2758 24.21 19.497H24.2065Z" fill="#7B7553"/>
<path d="M44.6589 19.5525C44.652 21.2583 43.2815 22.6514 41.6109 22.6514C39.8551 22.6514 38.4948 21.2548 38.5084 19.476C38.522 17.7667 39.8892 16.384 41.5632 16.384C43.3156 16.384 44.6657 17.7667 44.6589 19.5525Z" fill="#7B7553"/>
</g>
<defs>
<clipPath id="clip0_113_102">
<rect width="61" height="56" fill="white"/>
</clipPath>
</defs>
</svg>
