<svg width="53" height="53" viewBox="0 0 53 53" fill="none" xmlns="http://www.w3.org/2000/svg">
<path d="M38.2551 31.8265C37.7311 31.5618 34.3248 29.9738 33.8008 29.7091C33.2767 29.4444 32.7527 29.4444 32.2286 29.9738C31.7046 30.5031 30.6565 32.0911 30.1325 32.6205C29.8704 33.1498 29.3464 33.1498 28.8224 32.8851C26.9882 32.0911 25.1541 31.0325 23.5819 29.7091C22.2718 28.3858 20.9617 26.7978 19.9136 25.2097C19.6516 24.6804 19.9136 24.1511 20.1756 23.8864C20.4377 23.6217 20.6997 23.0924 21.2237 22.8277C21.4858 22.563 21.7478 22.0337 21.7478 21.769C22.0098 21.5044 22.0098 20.975 21.7478 20.7104C21.4858 20.4457 20.1756 17.2697 19.6516 15.9463C19.3896 14.0936 18.8655 14.0936 18.3415 14.0936C18.0795 14.0936 17.5554 14.0936 17.0314 14.0936C16.5073 14.0936 15.7213 14.623 15.4593 14.8876C13.8871 16.4757 13.1011 18.3283 13.1011 20.4457C13.3631 22.8277 14.1492 25.2097 15.7213 27.3271C18.6035 31.5618 22.2718 35.0025 26.7262 37.1199C28.0363 37.6492 29.0844 38.1785 30.3945 38.4432C31.7046 38.9725 33.0147 38.9725 34.5868 38.7079C36.421 38.4432 37.9931 37.1199 39.0412 35.5318C39.5652 34.4732 39.5652 33.4145 39.3032 32.3558C39.3032 32.3558 38.7792 32.0911 38.2551 31.8265ZM44.8057 7.74157C34.5868 -2.58052 18.0795 -2.58052 7.86064 7.74157C-0.524043 16.211 -2.09617 29.1798 3.6683 39.5019L0 53L13.8871 49.2946C17.8175 51.412 22.0098 52.4707 26.2021 52.4707C40.6133 52.4707 52.1423 40.8252 52.1423 26.2684C52.4043 19.387 49.522 12.7703 44.8057 7.74157ZM37.7311 44.7953C34.3248 46.9126 30.3945 48.236 26.2021 48.236C22.2718 48.236 18.6035 47.1773 15.1972 45.3246L14.4112 44.7953L6.28851 46.9126L8.38468 38.9725L7.86064 38.1785C1.57213 27.5918 4.71638 14.3583 14.9352 7.74157C25.1541 1.12484 38.2551 4.56554 44.5436 14.623C50.8322 24.9451 47.9499 38.4432 37.7311 44.7953Z" fill="#7B7553"/>
</svg>
