<?xml version="1.0" encoding="UTF-8"?>
<svg version="1.1" xmlns="http://www.w3.org/2000/svg" width="501" height="501">
<path d="M0 0 C165.33 0 330.66 0 501 0 C501 165.33 501 330.66 501 501 C335.67 501 170.34 501 0 501 C0 335.67 0 170.34 0 0 Z " fill="#FEFEFE" transform="translate(0,0)"/>
<path d="M0 0 C1.5778125 0.02707031 1.5778125 0.02707031 3.1875 0.0546875 C5.75099422 0.10129649 8.31248094 0.1666973 10.875 0.25 C10.875 0.91 10.875 1.57 10.875 2.25 C11.926875 2.3325 12.97875 2.415 14.0625 2.5 C18.19056818 3.31207899 19.93330641 4.30830641 22.875 7.25 C24.42302844 11.89408533 24.59603912 15.70959825 22.5 20.1875 C21.96375 20.868125 21.4275 21.54875 20.875 22.25 C20.215 22.25 19.555 22.25 18.875 22.25 C18.875 22.91 18.875 23.57 18.875 24.25 C17.94602905 24.27187378 17.94602905 24.27187378 16.99829102 24.29418945 C14.14412227 24.36947417 11.29102251 24.46586314 8.4375 24.5625 C7.46361328 24.58505859 6.48972656 24.60761719 5.48632812 24.63085938 C-2.37371912 24.92002499 -9.84235429 25.58622833 -15.5625 31.4375 C-22.9080644 40.03871644 -20.9297522 55.82957231 -20.125 66.25 C-18.01641046 82.19467246 -13.5051461 97.52136484 -7.125 112.25 C-6.49314362 113.80973997 -5.86745589 115.37200344 -5.25 116.9375 C-3.80217168 120.57619305 -2.3222301 124.19904763 -0.8125 127.8125 C-0.18214844 129.32263672 -0.18214844 129.32263672 0.4609375 130.86328125 C1.20168807 132.63739932 1.942554 134.41146954 2.68457031 136.18505859 C6.17705637 144.54507237 9.54278213 152.9283301 12.67114258 161.43164062 C14.31251963 165.8554121 16.10687577 170.17760358 18 174.5 C20.24437391 179.64577955 22.10999343 184.79764476 23.8203125 190.140625 C25.00435376 193.63135404 26.35997517 197.02365664 27.75 200.4375 C30.7735471 207.86455746 33.45788673 215.38781544 36.08203125 222.96386719 C37.19125168 226.16175515 38.31175317 229.35565237 39.43237305 232.54956055 C40.02183629 234.23259667 40.60922063 235.91636227 41.19458008 237.60083008 C42.65934118 241.81216936 44.14861915 246.0108437 45.69921875 250.19140625 C52.9812171 269.98149228 61.8115422 295.45175644 53.875 316.25 C53.53321932 317.60375988 53.21062713 318.96244006 52.90234375 320.32421875 C46.21150438 349.06761423 29.86327782 374.66162337 5.03125 391.13671875 C-1.64204545 395.25 -1.64204545 395.25 -4.125 395.25 C-4.125 395.91 -4.125 396.57 -4.125 397.25 C-9.53144247 400.2071773 -14.47567817 402.54445483 -20.54296875 403.66015625 C-23.84082289 404.41352384 -26.93828813 405.55347476 -30.125 406.6875 C-43.8453799 411.31047695 -57.34889141 412.75462887 -71.76391602 412.64111328 C-74.19018513 412.62498215 -76.61479522 412.64110024 -79.04101562 412.66015625 C-95.50061259 412.68398947 -111.61809189 411.21177456 -124.6484375 400.09765625 C-131.12360613 393.45674098 -135.21217003 385.55841168 -139.125 377.25 C-139.94484375 375.54070312 -139.94484375 375.54070312 -140.78125 373.796875 C-148.87025414 355.39026353 -151.35806383 334.86649316 -151.375 314.9375 C-151.37567474 314.22446716 -151.37634949 313.51143433 -151.37704468 312.77679443 C-151.35991603 301.36399097 -150.73056483 290.39164941 -148.125 279.25 C-147.95339355 278.49090332 -147.78178711 277.73180664 -147.60498047 276.94970703 C-143.48405484 259.21020859 -135.84991847 245.97867644 -124.125 232.25 C-123.43792969 231.42113281 -122.75085938 230.59226563 -122.04296875 229.73828125 C-118.08448077 225.04707089 -113.68642366 220.03071183 -108.125 217.25 C-106.58476004 217.18049459 -105.04165012 217.16547643 -103.5 217.1875 C-102.27410156 217.20103516 -102.27410156 217.20103516 -101.0234375 217.21484375 C-100.08371094 217.23224609 -100.08371094 217.23224609 -99.125 217.25 C-99.125 217.91 -99.125 218.57 -99.125 219.25 C-98.135 219.58 -97.145 219.91 -96.125 220.25 C-96.46617589 223.1532137 -97.00305129 224.13861559 -99.19921875 226.14453125 C-100.49279297 227.09392578 -100.49279297 227.09392578 -101.8125 228.0625 C-109.69694777 233.86516642 -114.11753891 240.37610275 -118.1875 249.1875 C-118.6194165 250.11264404 -119.05133301 251.03778809 -119.49633789 251.9909668 C-123.12076038 259.92362632 -125.97237098 267.80574388 -128.125 276.25 C-128.60066406 277.97669922 -128.60066406 277.97669922 -129.0859375 279.73828125 C-135.51812674 307.20786006 -132.09131184 339.88364627 -117.859375 364.49609375 C-115.84661822 367.69202512 -113.79835663 370.84899782 -111.625 373.9375 C-110.9134375 374.95199219 -110.201875 375.96648437 -109.46875 377.01171875 C-107.28667891 379.48508991 -107.28667891 379.48508991 -104.15625 379.89453125 C-100.07499088 379.02673775 -98.73791969 377.46856333 -96.125 374.25 C-81.86068701 351.75181529 -73.88654187 326.77070912 -73.8125 300.1875 C-73.80718262 299.26138916 -73.80186523 298.33527832 -73.79638672 297.38110352 C-73.86320966 290.82952475 -74.76954155 284.65258157 -76.125 278.25 C-76.35960937 277.12207031 -76.59421875 275.99414062 -76.8359375 274.83203125 C-77.93233421 270.25941203 -79.02610727 266.12843351 -81.3125 262 C-83.54431096 257.91262208 -83.6025905 254.86670817 -83.125 250.25 C-80.60237074 247.72737074 -78.84314661 247.93858115 -75.390625 247.7890625 C-71.93116767 248.49288313 -69.85523955 250.04032613 -67.125 252.25 C-65.3671875 255.17578125 -65.3671875 255.17578125 -64 258.5625 C-63.75483643 259.16916504 -63.50967285 259.77583008 -63.25708008 260.40087891 C-53.08629305 286.43249694 -52.77891049 317.67756738 -61.125 344.25 C-61.49753906 345.50554687 -61.87007813 346.76109375 -62.25390625 348.0546875 C-65.04157216 356.31084089 -69.68033676 362.57162094 -75.125 369.25 C-76.13172831 370.57826048 -77.13461431 371.90950981 -78.125 373.25 C-67.62169124 369.81788433 -62.56421049 365.83502862 -57.4765625 356.09375 C-43.85230274 327.64895401 -42.13922139 288.75270772 -52.12426758 258.81176758 C-52.7606995 257.02077274 -53.44663393 255.24757663 -54.13671875 253.4765625 C-55.24041279 249.87319776 -55.41405489 246.99868066 -55.125 243.25 C-53.4375 240.75 -53.4375 240.75 -51.125 239.25 C-48.75 239.0625 -48.75 239.0625 -46.125 240.25 C-43.82225524 242.36998724 -41.97993687 244.7357487 -40.125 247.25 C-39.69058594 247.81589844 -39.25617188 248.38179687 -38.80859375 248.96484375 C-23.60069069 270.75171427 -25.82673114 306.19611919 -29.63110352 331.19140625 C-31.18882545 339.92240684 -34.15995228 348.31990456 -38.125 356.25 C-33.98414641 354.36779382 -31.29139968 352.45822006 -28.125 349.25 C-26.6826829 348.12499266 -25.22383044 347.02089466 -23.75 345.9375 C-13.55114625 338.04215168 -6.5892974 327.00522162 -4.125 314.25 C-3.43861306 305.79600082 -4.70615007 298.53442494 -7.25 290.5 C-7.56984863 289.45577881 -7.88969727 288.41155762 -8.21923828 287.33569336 C-9.16263559 284.29832856 -10.13529033 281.27255673 -11.125 278.25 C-11.38087891 277.46447754 -11.63675781 276.67895508 -11.90039062 275.86962891 C-15.25721673 265.77834381 -19.91800426 256.62126632 -25.01220703 247.30859375 C-28.21880238 241.3766034 -31.16038419 235.30535942 -34.125 229.25 C-34.82810303 227.81696533 -34.82810303 227.81696533 -35.54541016 226.35498047 C-46.52945963 203.90870714 -46.52945963 203.90870714 -50.94140625 192.3359375 C-52.54248181 188.16151607 -54.32913705 184.07359149 -56.1171875 179.9765625 C-65.61869241 157.35793576 -71.01375279 131.6926281 -72.125 107.25 C-72.18276611 106.0122583 -72.18276611 106.0122583 -72.24169922 104.74951172 C-73.36222397 76.1677685 -67.64733202 48.07261612 -48.046875 26.38671875 C-47.07527854 25.3389507 -46.10129522 24.2933912 -45.125 23.25 C-44.63451172 22.71713379 -44.14402344 22.18426758 -43.63867188 21.63525391 C-31.38166691 8.41542685 -18.51277894 -0.612382 0 0 Z " fill="#050505" transform="translate(322.125,9.75)"/>
<path d="M0 0 C0.66 0 1.32 0 2 0 C2.08636719 0.97195312 2.17273438 1.94390625 2.26171875 2.9453125 C4.99193157 30.92826595 14.58725875 56.40394403 25.70532227 82.00634766 C28.99317391 89.60876834 31.89368326 97.35156822 34.78686523 105.11010742 C36.4678484 109.60956916 38.20860934 114.07912799 40.01171875 118.53125 C41.16241174 121.40570838 42.26940391 124.29540102 43.375 127.1875 C45.11276648 131.73202264 46.91158051 136.2453644 48.75 140.75 C53.17859615 151.70241067 57.05197512 162.86792262 61 174 C61.31614258 174.88913086 61.63228516 175.77826172 61.95800781 176.69433594 C65.49717023 186.66200975 68.93226398 196.66485869 72.3125 206.6875 C72.65031494 207.67951416 72.98812988 208.67152832 73.33618164 209.69360352 C76.4075509 218.86573357 78.36090819 227.10897326 78.25 236.8125 C78.24178223 237.69196289 78.23356445 238.57142578 78.22509766 239.47753906 C77.81129903 263.63803962 67.09153943 286.93756742 50 304 C37.1298196 316 37.1298196 316 32 316 C32 316.66 32 317.32 32 318 C30.85337891 318.43699219 30.85337891 318.43699219 29.68359375 318.8828125 C28.61238281 319.29273438 27.54117188 319.70265625 26.4375 320.125 C25.24769531 320.57617188 24.05789063 321.02734375 22.83203125 321.4921875 C20.29449113 322.47090668 17.80431754 323.51686733 15.32421875 324.6328125 C6.40054846 328.57632385 -1.20439943 329.97221106 -11 330 C-7.88281164 326.99030089 -4.94999553 325.52466355 -0.91015625 324.171875 C5.44428096 321.98663867 10.87763776 318.7930169 16.5625 315.25 C17.52607422 314.66734375 18.48964844 314.0846875 19.48242188 313.484375 C39.80113871 300.9889807 53.35645453 286.0385611 60 263 C62.85485035 249.32965891 60.86523286 236.193632 57 223 C56.78520996 222.23300781 56.57041992 221.46601563 56.34912109 220.67578125 C50.3611415 199.6255648 39.93393691 180.18859404 29.62890625 160.98144531 C22.52241717 147.60693904 16.13046711 133.69970887 10.9140625 119.4765625 C10.13904461 117.37672771 9.29635295 115.35064442 8.375 113.3125 C6.94196693 109.86019305 5.86630241 106.41141917 4.84375 102.8203125 C4.14262843 100.47674872 3.37008925 98.18798202 2.56640625 95.87890625 C0.79796624 90.60307841 -0.40335443 85.24988002 -1.5625 79.8125 C-1.77068359 78.87341797 -1.97886719 77.93433594 -2.19335938 76.96679688 C-4.98491434 64.04163488 -6.40693222 51.41709844 -6.375 38.1875 C-6.37617828 37.14207535 -6.37617828 37.14207535 -6.37738037 36.07553101 C-6.36019239 23.3163787 -4.96895816 11.88521075 0 0 Z " fill="#F8F8F8" transform="translate(278,69)"/>
<path d="M0 0 C1.31484375 0.01546875 2.6296875 0.0309375 3.984375 0.046875 C7.25 0.25 7.25 0.25 9.25 1.25 C8.92693116 4.26530917 8.69720603 5.82334392 6.46484375 7.953125 C5.71332031 8.46359375 4.96179688 8.9740625 4.1875 9.5 C-14.71152991 23.38928706 -19.91274042 44.30946472 -23.75 66.25 C-23.926521 67.20519531 -24.10304199 68.16039062 -24.28491211 69.14453125 C-26.94800173 86.92642101 -25.12976915 105.90260742 -20.75 123.25 C-20.57871582 123.93658691 -20.40743164 124.62317383 -20.23095703 125.33056641 C-16.15465026 140.88005169 -7.77840395 155.7745781 2.25 168.25 C2.74886719 168.93449219 3.24773437 169.61898437 3.76171875 170.32421875 C7.45574674 175.1517567 11.57418693 177.21932021 17.25 179.25 C17.25 180.57 17.25 181.89 17.25 183.25 C11.12780296 185.29073235 4.09532034 184.9861074 -1.75 182.25 C-22.45557137 170.38952708 -35.87721207 149.52980879 -42.375 126.9375 C-50.80921657 93.67985058 -51.44588971 58.54066675 -34.375 27.9375 C-26.59243907 15.20550338 -16.24011965 -0.32095098 0 0 Z " fill="#050505" transform="translate(176.75,231.75)"/>
<path d="M0 0 C0.67659668 0.15484863 1.35319336 0.30969727 2.05029297 0.46923828 C10.12679179 2.36010643 16.70705182 5.54073299 23 11 C24.45147903 13.90295805 24.37239025 15.77261779 24 19 C20.33021045 24.533243 17.07035959 26.19262367 10.75 27.8125 C6.00144149 28.75486615 6.00144149 28.75486615 2 31 C-5.01352626 32.1498921 -12.1608774 32.1922666 -19.25 32.1875 C-20.767146 32.1884668 -20.767146 32.1884668 -22.31494141 32.18945312 C-28.91925659 32.14296618 -35.08458807 31.55505735 -41.59375 30.45703125 C-52.25906671 29.02601972 -63.52637983 28.26541134 -72.515625 34.83984375 C-75.96446474 37.54748548 -79.28967456 40.38552057 -82.60546875 43.25390625 C-85 45 -85 45 -88.125 45 C-91.46294538 43.83897552 -92.4614746 43.16252443 -94 40 C-94.6875 37.25 -94.6875 37.25 -94 34 C-87.88587441 25.86440199 -77.92692988 18.44503653 -68 16 C-63.26133741 15.60776092 -58.54859881 15.67424694 -53.796875 15.7421875 C-52.42784405 15.75033897 -51.05880348 15.75699664 -49.6897583 15.76223755 C-46.10731499 15.7792532 -42.52525855 15.81345084 -38.94299316 15.85229492 C-33.19655789 15.91179044 -27.44992452 15.94542516 -21.70328522 15.97806168 C-19.70243309 15.99197501 -17.70164349 16.01409713 -15.7008667 16.03634644 C-14.48570374 16.04610504 -13.27054077 16.05586365 -12.01855469 16.06591797 C-10.41593781 16.08282181 -10.41593781 16.08282181 -8.78094482 16.10006714 C-6.33631944 16.01210183 -4.3284269 15.7110432 -2 15 C-24.6980995 9.85907554 -52.62193036 6.85188754 -75 15 C-75.99 15.66 -76.98 16.32 -78 17 C-80.9375 17.4375 -80.9375 17.4375 -84 17 C-86.88629588 14.41752474 -87.86270511 12.74749439 -88.5625 8.9375 C-88 6 -88 6 -86.12890625 4.01953125 C-63.70988286 -10.45067486 -24.56422384 -5.97822995 0 0 Z " fill="#090909" transform="translate(288,443)"/>
<path d="M0 0 C1.1240625 -0.00515625 2.248125 -0.0103125 3.40625 -0.015625 C9.15187661 0.47768638 11.60616631 3.1662232 15.5 7.25 C16.36625 8.095625 17.2325 8.94125 18.125 9.8125 C24.10423579 15.9490841 24.92021306 20.59153053 24.84765625 29.0703125 C24.15658401 35.39090576 21.44655548 40.39613764 16.875 44.75 C16.09125 45.245 15.3075 45.74 14.5 46.25 C13.51 46.91 12.52 47.57 11.5 48.25 C10.18 48.25 8.86 48.25 7.5 48.25 C7.5 48.91 7.5 49.57 7.5 50.25 C-7.36244273 51.06562186 -7.36244273 51.06562186 -13.5 46.25 C-19.90937267 40.28086707 -23.55716426 34.32827902 -24 25.4375 C-23.78012433 18.1083109 -21.55474083 12.51040655 -16.52734375 7.14453125 C-11.12231139 2.2446421 -7.43949433 -0.03412612 0 0 Z " fill="#0C0C0C" transform="translate(156.5,158.75)"/>
<path d="M0 0 C5.97286677 0.66365186 9.70718938 3.92968529 13.6328125 8.34375 C16.0391162 12.20536313 15.82331505 16.07355821 14.9375 20.4375 C13.18430404 23.93265349 11.21625494 26.29235714 7.9375 28.4375 C3.3113662 29.53656595 -0.54381973 29.03176619 -4.9375 27.3125 C-9.17858867 23.57036293 -11.3148369 20.22832352 -11.75 14.5625 C-11.57339848 9.25642712 -9.34360891 6.60055278 -5.69140625 2.93359375 C-4.88509766 2.19302734 -4.88509766 2.19302734 -4.0625 1.4375 C-3.0625 0.4375 -3.0625 0.4375 0 0 Z " fill="#F4F4F4" transform="translate(155.0625,169.5625)"/>
<path d="M0 0 C0.495 0.99 0.495 0.99 1 2 C-2.79881169 2.88803461 -6.29831699 3.11658417 -10.19555664 3.09765625 C-11.42355484 3.09435303 -12.65155304 3.0910498 -13.91676331 3.08764648 C-15.23458298 3.07934814 -16.55240265 3.0710498 -17.91015625 3.0625 C-19.28348112 3.05809108 -20.65680801 3.05427534 -22.03013611 3.05102539 C-26.37428676 3.03962869 -30.71838342 3.02038197 -35.0625 3 C-40.10162924 2.976378 -45.14072758 2.95599727 -50.17989922 2.94406128 C-52.19401123 2.93759201 -54.20810063 2.92501679 -56.22218323 2.91235352 C-57.44702927 2.90905029 -58.67187531 2.90574707 -59.93383789 2.90234375 C-61.01129776 2.89710693 -62.08875763 2.89187012 -63.1988678 2.88647461 C-65.6460369 2.98565444 -67.6681784 3.28946668 -70 4 C-69.67 3.01 -69.34 2.02 -69 1 C-70.65 1.33 -72.3 1.66 -74 2 C-68.82720321 -3.87963859 -59.82539363 -3.25760548 -52.51855469 -3.78613281 C-35.46131817 -4.82291738 -16.40428889 -5.71871085 0 0 Z " fill="#EEEFEF" transform="translate(286,457)"/>
<path d="M0 0 C0 0.33 0 0.66 0 1 C-2.97 1.66 -5.94 2.32 -9 3 C-8.21874756 3.02505615 -7.43749512 3.0501123 -6.63256836 3.07592773 C-3.06740383 3.19250203 0.49753613 3.31494865 4.0625 3.4375 C5.90618164 3.49647461 5.90618164 3.49647461 7.78710938 3.55664062 C13.59234494 3.76005858 19.2753207 3.98776102 25 5 C25 5.33 25 5.66 25 6 C23.90010742 5.99476318 22.80021484 5.98952637 21.66699219 5.98413086 C17.58187678 5.96601536 13.49676493 5.95454401 9.41162109 5.94506836 C7.64436241 5.94004313 5.87710788 5.93322191 4.10986328 5.92456055 C1.56802343 5.91241572 -0.9737614 5.90675355 -3.515625 5.90234375 C-4.30430969 5.89718246 -5.09299438 5.89202118 -5.90557861 5.88670349 C-9.44536403 5.88634242 -12.59500794 6.04604112 -16 7 C-15.67 6.01 -15.34 5.02 -15 4 C-16.65 4.33 -18.3 4.66 -20 5 C-15.08699134 -0.65693426 -6.98259698 -0.25391262 0 0 Z " fill="#969696" transform="translate(232,454)"/>
<path d="M0 0 C1.99788438 0.34578768 3.99759451 0.68143549 6 1 C2.39821412 3.40119059 -0.50866369 3.43771322 -4.6875 3.625 C-5.38939453 3.66367187 -6.09128906 3.70234375 -6.81445312 3.7421875 C-8.54254655 3.8362334 -10.27123675 3.9191968 -12 4 C-5.38831615 -1.5395189 -5.38831615 -1.5395189 0 0 Z " fill="#A4A4A4" transform="translate(279,395)"/>
<path d="M0 0 C0.66 0.33 1.32 0.66 2 1 C-2.95 5.95 -7.9 10.9 -13 16 C-13.66 15.67 -14.32 15.34 -15 15 C-10.39863498 9.46398272 -5.53601728 4.60136502 0 0 Z " fill="#D1D1D1" transform="translate(183,238)"/>
<path d="M0 0 C-1.61010527 4.07376031 -4.53822271 6.76507069 -7.625 9.75 C-8.140625 10.25660156 -8.65625 10.76320312 -9.1875 11.28515625 C-10.45383339 12.52803902 -11.7263144 13.76465276 -13 15 C-13.66 14.67 -14.32 14.34 -15 14 C-2.98984772 0 -2.98984772 0 0 0 Z " fill="#2D2D2D" transform="translate(165,235)"/>
<path d="M0 0 C0.66 0.33 1.32 0.66 2 1 C-2.95 5.95 -7.9 10.9 -13 16 C-13 11.08924079 -9.30469813 8.39044878 -6 5 C-4.05397986 3.23549584 -2.07285289 1.6178364 0 0 Z " fill="#CBCBCB" transform="translate(222,235)"/>
<path d="M0 0 C-1.53218685 3.63061667 -3.7183144 5.9863773 -6.5 8.75 C-7.69109375 9.94882813 -7.69109375 9.94882813 -8.90625 11.171875 C-11 13 -11 13 -13 13 C-11.46781315 9.36938333 -9.2816856 7.0136227 -6.5 4.25 C-5.7059375 3.45078125 -4.911875 2.6515625 -4.09375 1.828125 C-2 0 -2 0 0 0 Z " fill="#2F2F2F" transform="translate(212,229)"/>
<path d="M0 0 C-1.44077046 3.36179774 -3.24750021 5.59156268 -6 8 C-6.66 8 -7.32 8 -8 8 C-6.48291727 4.46014029 -4.24676932 0 0 0 Z " fill="#323232" transform="translate(145,163)"/>
<path d="M0 0 C0.66 0 1.32 0 2 0 C2 2.31 2 4.62 2 7 C1.01 7 0.02 7 -1 7 C-1.33 6.34 -1.66 5.68 -2 5 C-1.0625 2.375 -1.0625 2.375 0 0 Z " fill="#B9B9BA" transform="translate(278,69)"/>
<path d="M0 0 C-2 2 -2 2 -5.625 2.125 C-6.73875 2.08375 -7.8525 2.0425 -9 2 C-5.96271914 -1.03728086 -4.06215635 -1.35405212 0 0 Z " fill="#D5D5D5" transform="translate(276,397)"/>
</svg>
