<?xml version="1.0" encoding="UTF-8"?>
<!DOCTYPE svg PUBLIC "-//W3C//DTD SVG 1.1//EN" "http://www.w3.org/Graphics/SVG/1.1/DTD/svg11.dtd">
<svg xmlns="http://www.w3.org/2000/svg" version="1.1" width="256px" height="478px" style="shape-rendering:geometricPrecision; text-rendering:geometricPrecision; image-rendering:optimizeQuality; fill-rule:evenodd; clip-rule:evenodd" xmlns:xlink="http://www.w3.org/1999/xlink">
<g><path style="opacity:1" fill="#fefefe" d="M -0.5,-0.5 C 62.8333,-0.5 126.167,-0.5 189.5,-0.5C 180.869,2.3166 172.869,6.48327 165.5,12C 139.714,33.7467 127.047,61.5801 127.5,95.5C 129.649,135.763 139.483,174.096 157,210.5C 169.426,234.016 180.759,258.016 191,282.5C 201.909,311.772 194.409,334.939 168.5,352C 166.141,353.358 163.807,354.358 161.5,355C 166.889,344.495 170.056,333.328 171,321.5C 171.667,308.167 171.667,294.833 171,281.5C 169.631,265.709 163.797,251.875 153.5,240C 147.621,238.54 144.621,240.873 144.5,247C 148.189,257.587 151.022,268.42 153,279.5C 154.061,296.909 153.394,314.243 151,331.5C 148.793,345.745 142.96,358.245 133.5,369C 129.673,370.957 125.673,371.957 121.5,372C 130.369,362.768 136.536,351.934 140,339.5C 142.263,326.922 143.763,314.255 144.5,301.5C 144.124,284.662 140.29,268.662 133,253.5C 128.965,247.931 123.798,246.431 117.5,249C 116.427,250.313 115.76,251.813 115.5,253.5C 129.191,284.012 130.025,315.012 118,346.5C 113.339,357.345 107.839,367.678 101.5,377.5C 98.2815,379.372 94.9482,379.705 91.5,378.5C 79.4964,365.152 72.3297,349.486 70,331.5C 64.0192,298.051 69.6859,266.717 87,237.5C 92.5664,231.934 98.0664,226.434 103.5,221C 101.738,218.09 99.0711,216.924 95.5,217.5C 90.0013,217.816 85.5013,220.149 82,224.5C 71.0886,235.985 62.422,248.985 56,263.5C 44.5733,302.096 46.24,340.096 61,377.5C 73.5517,404.782 94.885,416.115 125,411.5C 163.903,413.032 197.236,400.365 225,373.5C 242.055,353.485 252.222,330.485 255.5,304.5C 255.5,362.167 255.5,419.833 255.5,477.5C 197.5,477.5 139.5,477.5 81.5,477.5C 87.4226,471.197 94.4226,466.364 102.5,463C 122.462,464.12 142.462,464.453 162.5,464C 171.77,462.731 180.27,459.564 188,454.5C 190.618,449.054 189.451,444.554 184.5,441C 165.451,431.641 145.284,427.474 124,428.5C 110.096,428.175 96.5957,430.342 83.5,435C 77.3027,437.862 75.9694,442.196 79.5,448C 81.1992,448.958 83.0326,449.458 85,449.5C 111.078,440.605 137.244,440.271 163.5,448.5C 157.796,450.03 151.962,450.697 146,450.5C 134.831,449.87 123.664,449.203 112.5,448.5C 103.563,447.651 95.2297,449.485 87.5,454C 82.3788,457.453 77.5455,461.286 73,465.5C 70.5112,470.243 71.3445,474.243 75.5,477.5C 50.1667,477.5 24.8333,477.5 -0.5,477.5C -0.5,318.167 -0.5,158.833 -0.5,-0.5 Z"/></g>
<g><path style="opacity:1" fill="#948e6a" d="M 189.5,-0.5 C 195.5,-0.5 201.5,-0.5 207.5,-0.5C 211.497,0.650614 215.497,2.15061 219.5,4C 226.493,11.0577 225.827,17.3911 217.5,23C 210.5,23.3333 203.5,23.6667 196.5,24C 187.86,25.3088 182.36,30.1422 180,38.5C 178.05,50.5471 178.384,62.5471 181,74.5C 183.318,86.4543 186.651,98.121 191,109.5C 209.902,153.537 227.236,198.204 243,243.5C 248.254,257.665 252.421,271.998 255.5,286.5C 255.5,292.5 255.5,298.5 255.5,304.5C 252.222,330.485 242.055,353.485 225,373.5C 197.236,400.365 163.903,413.032 125,411.5C 94.885,416.115 73.5517,404.782 61,377.5C 46.24,340.096 44.5733,302.096 56,263.5C 62.422,248.985 71.0886,235.985 82,224.5C 85.5013,220.149 90.0013,217.816 95.5,217.5C 99.0711,216.924 101.738,218.09 103.5,221C 98.0664,226.434 92.5664,231.934 87,237.5C 69.6859,266.717 64.0192,298.051 70,331.5C 72.3297,349.486 79.4964,365.152 91.5,378.5C 94.9482,379.705 98.2815,379.372 101.5,377.5C 107.839,367.678 113.339,357.345 118,346.5C 130.025,315.012 129.191,284.012 115.5,253.5C 115.76,251.813 116.427,250.313 117.5,249C 123.798,246.431 128.965,247.931 133,253.5C 140.29,268.662 144.124,284.662 144.5,301.5C 143.763,314.255 142.263,326.922 140,339.5C 136.536,351.934 130.369,362.768 121.5,372C 125.673,371.957 129.673,370.957 133.5,369C 142.96,358.245 148.793,345.745 151,331.5C 153.394,314.243 154.061,296.909 153,279.5C 151.022,268.42 148.189,257.587 144.5,247C 144.621,240.873 147.621,238.54 153.5,240C 163.797,251.875 169.631,265.709 171,281.5C 171.667,294.833 171.667,308.167 171,321.5C 170.056,333.328 166.889,344.495 161.5,355C 163.807,354.358 166.141,353.358 168.5,352C 194.409,334.939 201.909,311.772 191,282.5C 180.759,258.016 169.426,234.016 157,210.5C 139.483,174.096 129.649,135.763 127.5,95.5C 127.047,61.5801 139.714,33.7467 165.5,12C 172.869,6.48327 180.869,2.3166 189.5,-0.5 Z"/></g>
<g><path style="opacity:1" fill="#fefefe" d="M 207.5,-0.5 C 223.5,-0.5 239.5,-0.5 255.5,-0.5C 255.5,95.1667 255.5,190.833 255.5,286.5C 252.421,271.998 248.254,257.665 243,243.5C 227.236,198.204 209.902,153.537 191,109.5C 186.651,98.121 183.318,86.4543 181,74.5C 178.384,62.5471 178.05,50.5471 180,38.5C 182.36,30.1422 187.86,25.3088 196.5,24C 203.5,23.6667 210.5,23.3333 217.5,23C 225.827,17.3911 226.493,11.0577 219.5,4C 215.497,2.15061 211.497,0.650614 207.5,-0.5 Z"/></g>
<g><path style="opacity:1" fill="#fdfdfc" d="M 156.5,57.5 C 158.119,74.0874 161.619,90.4208 167,106.5C 187.04,154.284 205.707,202.617 223,251.5C 242.757,295.478 235.257,333.978 200.5,367C 183.145,380.453 163.479,387.786 141.5,389C 164.127,381.275 183.96,369.109 201,352.5C 213.626,336.336 218.959,318.002 217,297.5C 214.597,285.888 211.264,274.554 207,263.5C 194.394,237.955 182.061,212.288 170,186.5C 157.747,158.065 150.914,128.399 149.5,97.5C 149.05,83.6395 151.384,70.3062 156.5,57.5 Z"/></g>
<g><path style="opacity:1" fill="#958f6c" d="M 29.5,148.5 C 42.8651,148.939 52.3651,155.272 58,167.5C 59.9918,189.174 50.1584,199.341 28.5,198C 11.54,190.24 6.70664,177.74 14,160.5C 18.1839,155.14 23.3505,151.14 29.5,148.5 Z"/></g>
<g><path style="opacity:1" fill="#fcfcfb" d="M 31.5,159.5 C 44.6461,161.475 49.4794,168.808 46,181.5C 44.5202,184.663 42.0202,186.496 38.5,187C 25.8606,188.025 20.3606,182.192 22,169.5C 24.0223,164.98 27.189,161.647 31.5,159.5 Z"/></g>
<g><path style="opacity:1" fill="#948e6a" d="M 46.5,221.5 C 51.5111,221.334 56.5111,221.501 61.5,222C 64.1235,224.559 63.7902,226.892 60.5,229C 46.1856,239.683 37.019,253.85 33,271.5C 22.2773,316.223 30.6106,356.89 58,393.5C 61.7522,396.629 65.9188,399.129 70.5,401C 71.3802,402.356 71.7135,403.856 71.5,405.5C 64.4351,407.549 57.7685,406.716 51.5,403C 28.5144,387.561 14.6811,366.061 10,338.5C 5.51598,317.116 5.51598,295.783 10,274.5C 15.7755,252.235 27.9422,234.568 46.5,221.5 Z"/></g>
<g><path style="opacity:1" fill="#948e6b" d="M 81.5,477.5 C 79.5,477.5 77.5,477.5 75.5,477.5C 71.3445,474.243 70.5112,470.243 73,465.5C 77.5455,461.286 82.3788,457.453 87.5,454C 95.2297,449.485 103.563,447.651 112.5,448.5C 123.664,449.203 134.831,449.87 146,450.5C 151.962,450.697 157.796,450.03 163.5,448.5C 137.244,440.271 111.078,440.605 85,449.5C 83.0326,449.458 81.1992,448.958 79.5,448C 75.9694,442.196 77.3027,437.862 83.5,435C 96.5957,430.342 110.096,428.175 124,428.5C 145.284,427.474 165.451,431.641 184.5,441C 189.451,444.554 190.618,449.054 188,454.5C 180.27,459.564 171.77,462.731 162.5,464C 142.462,464.453 122.462,464.12 102.5,463C 94.4226,466.364 87.4226,471.197 81.5,477.5 Z"/></g>
</svg>
