<?xml version="1.0" standalone="no"?>
<!DOCTYPE svg PUBLIC "-//W3C//DTD SVG 20010904//EN"
 "http://www.w3.org/TR/2001/REC-SVG-20010904/DTD/svg10.dtd">
<svg version="1.0" xmlns="http://www.w3.org/2000/svg"
 width="315.000000pt" height="189.000000pt" viewBox="0 0 315.000000 189.000000"
 preserveAspectRatio="xMidYMid meet">

<g transform="translate(0.000000,189.000000) scale(0.100000,-0.100000)"
fill="#000000" stroke="none">
<path d="M2791 1863 c-35 -7 -105 -82 -119 -129 -31 -106 -7 -233 78 -414 32
-69 61 -141 65 -160 7 -41 -18 -95 -53 -118 l-24 -15 9 39 c12 60 6 169 -12
203 -23 46 -39 40 -29 -11 5 -24 9 -75 8 -114 -1 -80 -27 -146 -60 -153 -18
-3 -18 -2 -3 15 38 45 51 162 25 234 -15 41 -54 58 -41 19 4 -13 9 -56 12 -95
4 -58 1 -80 -17 -122 -29 -68 -44 -80 -70 -57 -25 22 -50 104 -50 161 0 61 29
142 64 176 29 29 29 30 6 26 -31 -4 -86 -76 -101 -131 -29 -107 10 -270 72
-302 37 -20 162 -19 221 1 102 34 178 139 178 244 0 63 -16 116 -109 352 -70
181 -82 235 -57 273 12 19 25 25 52 25 35 0 56 22 38 40 -12 12 -54 19 -83 13z
m-57 -184 c4 -22 32 -104 62 -182 31 -78 69 -182 86 -232 28 -82 29 -94 19
-141 -14 -63 -68 -129 -125 -155 -69 -31 -86 -21 -23 13 83 45 102 76 102 163
-1 65 -5 80 -62 200 -68 144 -70 149 -83 230 -9 58 -3 145 10 145 4 0 10 -18
14 -41z"/>
<path d="M1490 1625 c-7 -9 -10 -18 -7 -21 3 -3 10 4 17 15 13 25 8 27 -10 6z"/>
<path d="M1454 1603 c-9 -45 -12 -50 -13 -23 -1 20 -3 22 -11 10 -5 -8 -10
-26 -11 -40 0 -23 -1 -23 -9 -5 -7 16 -9 12 -10 -20 -2 -40 -2 -40 -11 -10 -7
26 -8 24 -5 -13 2 -23 0 -40 -5 -36 -5 3 -9 15 -10 27 0 12 -3 17 -5 10 -3 -6
-1 -28 5 -47 6 -24 6 -36 -1 -36 -6 0 -8 -6 -5 -13 3 -7 -2 -22 -10 -32 -14
-19 -14 -19 -8 7 4 15 2 35 -5 45 -9 15 -10 12 -5 -17 5 -28 4 -32 -5 -20 -10
12 -11 12 -5 -5 4 -11 9 -90 11 -175 4 -153 29 -319 52 -342 14 -14 32 -1 33
25 1 16 3 17 6 5 6 -22 29 -30 42 -14 7 9 4 31 -10 77 -26 79 -28 220 -5 294
21 66 20 85 -3 85 -18 0 -37 -45 -60 -145 -8 -37 -9 -36 -10 30 -1 51 4 81 18
108 10 20 14 37 9 37 -6 0 -5 6 2 15 7 8 9 15 4 15 -4 0 1 7 12 16 19 15 19
16 -1 10 -17 -5 -16 -3 5 14 14 11 21 20 16 20 -6 0 -1 7 10 16 10 8 12 13 4
9 -10 -4 -9 -2 2 8 10 8 15 17 11 20 -3 4 -1 7 6 7 7 0 9 4 6 10 -4 6 1 7 11
3 12 -4 15 -3 10 5 -4 8 0 12 11 13 14 0 12 3 -6 10 l-24 9 24 27 24 26 -27
-18 c-16 -9 -28 -13 -29 -9 0 5 -5 0 -10 -11 -7 -16 -8 -13 -4 13 6 39 -2 43
-11 5z"/>
<path d="M1510 1580 c-13 -8 -13 -10 2 -10 9 0 20 5 23 10 8 13 -5 13 -25 0z"/>
<path d="M2396 1494 c-33 -33 -7 -94 41 -94 25 0 53 30 53 57 0 44 -63 69 -94
37z m68 -26 c8 -14 7 -21 -6 -34 -30 -30 -75 9 -48 42 16 18 39 15 54 -8z"/>
<path d="M1352 1440 c0 -14 2 -19 5 -12 2 6 2 18 0 25 -3 6 -5 1 -5 -13z"/>
<path d="M1583 1348 c-19 -21 -32 -89 -34 -172 0 -26 33 -70 56 -74 14 -3 16
1 11 22 -4 17 -2 26 5 26 11 0 10 7 -8 62 -3 11 5 21 26 32 32 17 193 22 323
10 l66 -7 -10 -29 c-23 -66 25 -278 65 -286 23 -5 22 26 -3 106 -31 99 -23
212 14 212 13 0 13 -5 0 -42 -11 -30 -14 -60 -9 -100 8 -76 48 -192 67 -196
26 -5 26 20 2 102 -27 91 -30 152 -10 200 12 30 20 34 62 40 66 10 127 28 136
40 12 18 -4 28 -36 22 -28 -5 -29 -4 -12 9 11 8 16 21 12 30 -5 14 -12 12 -54
-9 -79 -40 -158 -51 -265 -36 -51 7 -135 23 -187 36 -124 31 -189 32 -217 2z
m172 -33 c29 -13 29 -13 -28 -14 -32 -1 -73 -8 -92 -15 -34 -15 -35 -15 -35
10 0 44 76 53 155 19z"/>
<path d="M2433 1318 c-11 -13 -29 -39 -39 -58 -26 -48 -26 -177 -1 -242 20
-51 76 -108 107 -108 18 0 17 2 -5 24 -88 88 -100 284 -23 372 l30 34 -24 0
c-14 0 -34 -10 -45 -22z"/>
<path d="M753 1319 c-15 -15 -6 -39 15 -39 12 0 14 -11 9 -65 -14 -143 -85
-222 -259 -284 -107 -38 -169 -34 -227 15 -55 46 -66 144 -16 144 13 0 27 -4
30 -10 9 -15 45 -12 45 3 0 34 -103 49 -163 23 -46 -19 -97 -80 -97 -116 0
-51 49 -86 160 -115 88 -23 267 -16 360 15 152 50 243 145 275 285 l12 50 43
-3 c67 -6 124 -38 185 -104 52 -56 55 -62 42 -82 -8 -11 -37 -34 -65 -49 -29
-16 -52 -35 -52 -43 0 -22 48 -17 96 11 58 34 84 79 84 147 0 68 -44 146 -108
192 l-44 31 -156 3 c-111 2 -160 0 -169 -9z m330 -57 c32 -18 97 -95 97 -114
0 -5 -23 11 -50 36 -53 47 -139 86 -191 86 -20 0 -28 4 -23 11 10 17 130 3
167 -19z m-871 -184 c-16 -16 -15 -77 2 -110 13 -25 13 -28 -2 -28 -33 0 -62
13 -62 26 0 17 12 18 29 2 11 -11 13 -10 7 5 -17 49 -17 68 -2 92 9 14 22 25
28 25 9 0 9 -3 0 -12z m538 -57 c-12 -17 -26 -31 -32 -31 -5 0 3 15 19 33 34
41 43 39 13 -2z m-610 -22 c0 -5 -4 -9 -10 -9 -5 0 -10 7 -10 16 0 8 5 12 10
9 6 -3 10 -10 10 -16z"/>
<path d="M2563 840 c-47 -19 -20 -27 71 -22 64 3 95 1 100 -7 5 -8 -16 -11
-77 -9 -78 3 -87 1 -111 -21 -33 -31 -18 -55 15 -25 18 16 34 19 103 16 84 -2
131 11 131 37 0 8 -16 20 -35 27 -41 14 -165 17 -197 4z"/>
<path d="M1642 648 c2 -12 10 -23 18 -23 22 0 19 39 -3 43 -15 3 -18 -1 -15
-20z m28 -9 c0 -5 -4 -9 -10 -9 -5 0 -10 7 -10 16 0 8 5 12 10 9 6 -3 10 -10
10 -16z"/>
<path d="M1827 605 c50 -21 72 -87 38 -115 -13 -11 -24 -4 -71 40 -30 29 -58
49 -62 46 -3 -4 0 -11 8 -16 13 -8 11 -12 -7 -25 -29 -21 -31 -74 -3 -106 22
-28 27 -14 5 15 -28 37 -13 86 26 86 21 0 72 -57 100 -111 11 -23 23 -39 25
-36 3 3 -3 22 -14 42 l-19 37 25 25 c19 19 23 31 18 56 -7 38 -48 77 -79 77
-18 -1 -16 -3 10 -15z"/>
<path d="M1651 563 c-13 -47 -14 -153 -2 -153 6 0 7 15 4 33 -3 19 0 60 7 91
13 66 7 87 -9 29z"/>
<path d="M2262 590 c-29 -12 -57 -70 -48 -104 16 -63 97 -71 161 -14 53 45 48
73 -17 103 -58 27 -63 28 -96 15z m106 -32 c43 -26 41 -52 -5 -82 -61 -40 -88
-42 -118 -11 -32 31 -28 68 11 103 29 25 57 23 112 -10z"/>
<path d="M2581 532 c-1 -95 27 -429 40 -462 8 -21 8 -19 5 15 -5 46 -23 259
-35 415 -8 101 -8 102 -10 32z"/>
<path d="M2911 589 c-35 -14 -21 -20 20 -9 18 6 46 10 61 10 l28 0 0 -92 c0
-50 3 -88 7 -85 3 4 5 41 4 82 -3 82 7 97 49 75 12 -6 24 -9 27 -6 4 3 -10 13
-30 21 -40 17 -129 19 -166 4z"/>
<path d="M2692 578 c-14 -14 -16 -44 -3 -53 5 -3 11 7 13 22 4 39 39 43 67 7
31 -39 29 -103 -4 -134 -27 -26 -79 -32 -125 -16 -21 7 -23 6 -12 -5 8 -9 34
-14 67 -14 46 0 59 4 82 28 54 54 26 168 -43 175 -16 2 -35 -3 -42 -10z"/>
<path d="M2851 513 c0 -43 4 -87 8 -98 5 -12 8 21 7 77 -1 54 -4 98 -8 98 -5
0 -8 -35 -7 -77z"/>
<path d="M1940 543 c11 -21 20 -51 20 -68 -1 -43 -49 -125 -90 -153 -30 -20
-44 -23 -97 -20 -64 4 -76 -7 -19 -17 41 -8 105 8 140 36 36 28 76 110 76 155
0 38 -26 104 -41 104 -5 0 0 -17 11 -37z"/>
<path d="M1194 555 c2 -11 12 -38 20 -60 8 -22 15 -65 16 -95 0 -42 3 -51 11
-38 13 24 -6 130 -32 178 -11 19 -18 26 -15 15z"/>
<path d="M2036 563 l51 -4 -5 -45 c-5 -44 11 -94 30 -94 5 0 2 13 -8 29 -12
21 -15 39 -10 66 l7 38 47 -7 c36 -5 44 -4 34 6 -7 7 -47 13 -105 14 -50 0
-69 -1 -41 -3z"/>
<path d="M926 515 c-4 -19 -2 -43 3 -53 8 -13 10 -5 11 36 0 60 -5 67 -14 17z"/>
<path d="M980 542 c0 -5 9 -17 20 -27 19 -18 19 -18 -5 -47 -20 -24 -25 -40
-24 -81 l2 -52 6 52 c4 35 14 61 29 75 25 25 23 27 84 -64 17 -27 35 -48 40
-48 5 0 1 11 -8 25 -15 23 -15 27 5 58 26 43 27 68 1 98 -23 28 -25 22 -6 -16
12 -23 13 -34 2 -59 -7 -17 -17 -31 -23 -31 -5 0 -33 28 -62 63 -51 61 -61 70
-61 54z"/>
<path d="M1504 511 c17 -19 17 -21 -7 -45 -34 -34 -71 -42 -102 -22 -34 22
-45 19 -16 -4 37 -31 82 -26 122 14 l34 34 38 -36 c20 -20 37 -31 37 -25 0 14
-98 103 -113 103 -5 0 -2 -9 7 -19z"/>
<path d="M170 500 c-55 -23 -103 -25 -120 -5 -7 8 -17 15 -23 15 -6 0 -1 -10
10 -22 15 -17 18 -29 13 -43 -13 -31 -11 -101 3 -113 18 -14 103 -24 148 -17
54 9 74 41 73 116 -1 90 -20 103 -104 69z m90 -77 c0 -77 -19 -93 -113 -93
-80 0 -97 9 -96 50 1 52 22 85 55 88 17 2 53 11 80 22 45 17 50 17 62 2 6 -9
12 -40 12 -69z"/>
<path d="M695 435 c-4 -42 -5 -78 -2 -81 2 -3 8 25 12 62 4 37 9 73 12 81 3 7
1 13 -5 13 -6 0 -13 -34 -17 -75z"/>
<path d="M793 500 c-13 -5 -23 -15 -23 -22 0 -9 3 -9 12 0 21 21 66 14 84 -13
16 -24 15 -45 -1 -90 -7 -20 -6 -20 9 -1 26 32 21 91 -10 115 -29 23 -38 24
-71 11z"/>
<path d="M617 470 c6 -32 -13 -116 -29 -126 -12 -8 -84 36 -140 86 -27 23 -48
37 -48 31 0 -12 102 -96 142 -117 15 -8 28 -18 28 -22 0 -16 -86 -94 -123
-114 -40 -20 -115 -27 -155 -14 -28 9 -53 63 -45 96 4 16 3 21 -5 16 -16 -10
-15 -51 3 -86 28 -54 129 -64 213 -21 51 27 127 107 151 161 21 46 29 140 11
140 -5 0 -7 -13 -3 -30z"/>
<path d="M331 429 c-13 -38 -13 -39 -3 -39 4 0 12 16 18 35 14 44 0 47 -15 4z"/>
<path d="M2460 431 c-13 -25 -13 -68 0 -76 7 -4 9 2 4 19 -4 17 0 35 10 51 9
14 12 25 7 25 -6 0 -15 -9 -21 -19z"/>
<path d="M2688 343 c7 -3 16 -2 19 1 4 3 -2 6 -13 5 -11 0 -14 -3 -6 -6z"/>
<path d="M2745 341 c3 -6 -12 -12 -32 -14 l-38 -4 36 -1 c19 -1 44 5 55 13 18
14 18 14 -4 15 -13 0 -21 -4 -17 -9z"/>
<path d="M1063 298 c2 -7 12 -13 22 -13 10 0 20 6 23 13 2 7 -6 12 -23 12 -17
0 -25 -5 -22 -12z"/>
<path d="M990 291 c0 -15 16 -22 34 -15 25 9 19 24 -9 24 -14 0 -25 -4 -25 -9z"/>
</g>
</svg>
